<svg width="142" height="47" viewBox="0 0 142 47" fill="none" xmlns="http://www.w3.org/2000/svg">
<g clip-path="url(#clip0_883_1770)">
<path d="M130.692 0.00015275H11.3144C10.8792 0.00015275 10.4493 0.00015275 10.0153 0.00250275C9.65202 0.00485275 9.29162 0.0116795 8.92483 0.0174252C8.12801 0.0267099 7.33306 0.0961224 6.5469 0.225059C5.76183 0.356804 5.00136 0.605179 4.29121 0.961784C3.58192 1.32141 2.93382 1.7887 2.37043 2.34671C1.80408 2.90315 1.33198 3.54632 0.972286 4.25149C0.611602 4.95526 0.361503 5.70941 0.230626 6.48789C0.0985054 7.2654 0.0274098 8.05186 0.0179778 8.84024C0.00696567 9.2005 0.00580274 9.56195 0 9.92225V37.0815C0.00580274 37.4463 0.00696567 37.7998 0.0179778 38.1647C0.0274127 38.9531 0.0985083 39.7395 0.230626 40.517C0.361142 41.2959 0.611256 42.0505 0.972286 42.7545C1.33181 43.4574 1.80398 44.098 2.37043 44.6513C2.93169 45.2118 3.5802 45.6794 4.29121 46.0363C5.00136 46.3939 5.76175 46.6437 6.5469 46.7775C7.3332 46.9054 8.12806 46.9748 8.92483 46.9852C9.29162 46.9932 9.65202 46.9978 10.0153 46.9978C10.4493 47.0002 10.8793 47.0002 11.3144 47.0002H130.692C131.118 47.0002 131.552 47.0002 131.978 46.9978C132.34 46.9978 132.711 46.9932 133.072 46.9852C133.868 46.9754 134.661 46.9059 135.446 46.7775C136.233 46.6428 136.996 46.393 137.71 46.0363C138.42 45.6792 139.068 45.2116 139.629 44.6513C140.194 44.0958 140.667 43.4557 141.031 42.7545C141.39 42.05 141.637 41.2955 141.766 40.517C141.898 39.7394 141.972 38.9531 141.986 38.1647C141.991 37.7998 141.991 37.4463 141.991 37.0815C142 36.6546 142 36.2301 142 35.7963V11.2051C142 10.7748 142 10.348 141.991 9.92225C141.991 9.56195 141.991 9.2005 141.986 8.84019C141.972 8.05175 141.898 7.26545 141.766 6.48784C141.637 5.70981 141.389 4.95572 141.031 4.25144C140.299 2.83801 139.137 1.68748 137.71 0.961679C136.996 0.605944 136.233 0.357635 135.446 0.224954C134.661 0.0954485 133.868 0.0260119 133.072 0.0172607C132.711 0.0115267 132.34 0.00464125 131.978 0.00235C131.552 0 131.118 0.00015275 130.692 0.00015275Z" fill="#A6A6A6"/>
<path d="M10.0203 45.9718C9.65875 45.9718 9.30593 45.9672 8.94722 45.9593C8.20411 45.9497 7.46274 45.8856 6.72919 45.7676C6.04519 45.651 5.38258 45.434 4.76321 45.1238C4.14952 44.8162 3.58979 44.4129 3.10545 43.9293C2.61411 43.4514 2.20504 42.8971 1.89446 42.2884C1.58046 41.6758 1.36315 41.0191 1.25011 40.3412C1.12803 39.6129 1.06198 38.8764 1.05253 38.1381C1.04501 37.8903 1.03516 37.0652 1.03516 37.0652V9.92205C1.03516 9.92205 1.04565 9.10964 1.05259 8.87097C1.06164 8.13387 1.1273 7.39852 1.24902 6.67128C1.36227 5.99157 1.57974 5.33298 1.89392 4.71832C2.20335 4.11003 2.61015 3.55534 3.09854 3.07573C3.58637 2.59156 4.1479 2.18616 4.76263 1.87432C5.38058 1.56516 6.04193 1.34971 6.72455 1.23519C7.46051 1.11601 8.20445 1.05157 8.95014 1.04242L10.0209 1.02808H131.972L133.055 1.043C133.794 1.05169 134.531 1.11555 135.261 1.23404C135.95 1.35 136.618 1.56695 137.243 1.87777C138.475 2.50621 139.477 3.50047 140.109 4.72118C140.418 5.3316 140.632 5.98482 140.744 6.65866C140.867 7.39187 140.936 8.13299 140.95 8.87614C140.954 9.2089 140.954 9.56633 140.954 9.92205C140.963 10.3627 140.963 10.7821 140.963 11.2049V35.7961C140.963 36.223 140.963 36.6395 140.954 37.0595C140.954 37.4416 140.954 37.7916 140.949 38.1518C140.935 38.8817 140.868 39.6096 140.746 40.3297C140.636 41.0125 140.42 41.6743 140.106 42.292C139.793 42.8941 139.386 43.4435 138.901 43.9202C138.416 44.4064 137.855 44.812 137.24 45.1216C136.617 45.4341 135.949 45.6519 135.261 45.7676C134.527 45.8862 133.786 45.9503 133.042 45.9593C132.695 45.9672 132.331 45.9718 131.978 45.9718L130.691 45.9742L10.0203 45.9718Z" fill="black"/>
<path d="M29.3913 23.8534C29.4041 22.8726 29.6672 21.911 30.1561 21.058C30.6451 20.205 31.3439 19.4884 32.1878 18.9747C31.6517 18.2166 30.9445 17.5928 30.1224 17.1527C29.3002 16.7126 28.3858 16.4683 27.4516 16.4394C25.459 16.2323 23.5271 17.6201 22.5117 17.6201C21.4766 17.6201 19.9132 16.46 18.2297 16.4943C17.1407 16.5291 16.0794 16.8427 15.1492 17.4044C14.219 17.9661 13.4516 18.7568 12.9218 19.6995C10.6269 23.6339 12.3387 29.4161 14.5371 32.5964C15.637 34.1537 16.9225 35.8932 18.6045 35.8315C20.2505 35.7639 20.8652 34.7923 22.8521 34.7923C24.8204 34.7923 25.3972 35.8315 27.1133 35.7923C28.8795 35.7639 29.9923 34.2281 31.0536 32.6561C31.8439 31.5465 32.452 30.3201 32.8555 29.0224C31.8294 28.5926 30.9537 27.8733 30.3377 26.9541C29.7217 26.0349 29.3925 24.9565 29.3913 23.8534Z" fill="#FFFCFC"/>
<path d="M26.1494 14.3478C27.1124 13.2031 27.5869 11.7318 27.472 10.2463C26.0007 10.3993 24.6417 11.0956 23.6657 12.1964C23.1885 12.7341 22.823 13.3597 22.5901 14.0375C22.3572 14.7152 22.2615 15.4317 22.3085 16.146C23.0444 16.1535 23.7724 15.9956 24.4377 15.6841C25.103 15.3726 25.6883 14.9157 26.1494 14.3478Z" fill="#FFFCFC"/>
<path d="M50.1965 31.8891H44.5796L43.2307 35.833H40.8516L46.1718 21.2418H48.6436L53.9639 35.833H51.5442L50.1965 31.8891ZM45.1613 30.0693H49.6136L47.4188 23.6687H47.3574L45.1613 30.0693Z" fill="#FFFCFC"/>
<path d="M65.4542 30.5144C65.4542 33.8203 63.6673 35.9442 60.9706 35.9442C60.2875 35.9796 59.6082 35.8238 59.0103 35.4946C58.4125 35.1655 57.9204 34.6763 57.5903 34.083H57.5393V39.3522H55.334V25.1948H57.4686V26.9642H57.5092C57.8544 26.3738 58.3549 25.8871 58.9573 25.556C59.5596 25.2248 60.2414 25.0615 60.9301 25.0835C63.6568 25.0835 65.4542 27.2178 65.4542 30.5144ZM63.1875 30.5144C63.1875 28.3607 62.0634 26.9447 60.3483 26.9447C58.6634 26.9447 57.53 28.3905 57.53 30.5144C57.53 32.6579 58.6634 34.0934 60.3483 34.0934C62.0634 34.0934 63.1875 32.6877 63.1875 30.5144Z" fill="#FFFCFC"/>
<path d="M77.2784 30.5144C77.2784 33.8203 75.4915 35.9442 72.7949 35.9442C72.1117 35.9796 71.4324 35.8238 70.8346 35.4946C70.2367 35.1655 69.7446 34.6763 69.4145 34.083H69.3635V39.3522H67.1582V25.1948H69.2928V26.9642H69.3333C69.6786 26.3738 70.1791 25.8871 70.7814 25.556C71.3838 25.2248 72.0656 25.0615 72.7543 25.0835C75.481 25.0835 77.2784 27.2178 77.2784 30.5144ZM75.0117 30.5144C75.0117 28.3607 73.8876 26.9447 72.1725 26.9447C70.4876 26.9447 69.3542 28.3905 69.3542 30.5144C69.3542 32.6579 70.4876 34.0934 72.1725 34.0934C73.8876 34.0934 75.0117 32.6877 75.0117 30.5144Z" fill="#FFFCFC"/>
<path d="M85.0934 31.7675C85.2568 33.2145 86.6764 34.1645 88.6163 34.1645C90.4751 34.1645 91.8124 33.2144 91.8124 31.9097C91.8124 30.7772 91.0058 30.0991 89.096 29.6343L87.1863 29.1788C84.4804 28.5316 83.2242 27.2786 83.2242 25.2453C83.2242 22.7278 85.4399 20.9985 88.5862 20.9985C91.6999 20.9985 93.8345 22.7278 93.9064 25.2453H91.6802C91.547 23.7892 90.3313 22.9102 88.5548 22.9102C86.7783 22.9102 85.5627 23.7995 85.5627 25.0938C85.5627 26.1254 86.3391 26.7324 88.2385 27.1971L89.862 27.5918C92.8854 28.2998 94.1416 29.5024 94.1416 31.6366C94.1416 34.3664 91.9456 36.0761 88.4528 36.0761C85.1849 36.0761 82.9785 34.4066 82.8359 31.7674L85.0934 31.7675Z" fill="#FFFCFC"/>
<path d="M98.9009 22.6774V25.1949H100.944V26.9241H98.9009V32.7888C98.9009 33.6999 99.3099 34.1244 100.208 34.1244C100.451 34.1203 100.693 34.1034 100.933 34.0739V35.7928C100.53 35.8675 100.119 35.9013 99.7086 35.8938C97.5334 35.8938 96.6852 35.0848 96.6852 33.0217V26.9241H95.123V25.1949H96.6851V22.6774H98.9009Z" fill="#FFFCFC"/>
<path d="M102.127 30.5145C102.127 27.1674 104.118 25.0641 107.222 25.0641C110.337 25.0641 112.319 27.1673 112.319 30.5145C112.319 33.8709 110.348 35.965 107.222 35.965C104.098 35.965 102.127 33.8708 102.127 30.5145ZM110.072 30.5145C110.072 28.2185 109.009 26.8633 107.222 26.8633C105.435 26.8633 104.374 28.2288 104.374 30.5145C104.374 32.8198 105.435 34.1646 107.222 34.1646C109.009 34.1646 110.072 32.8198 110.072 30.5145Z" fill="#FFFCFC"/>
<path d="M114.139 25.1948H116.242V27.0055H116.293C116.435 26.44 116.77 25.9402 117.241 25.5902C117.711 25.2402 118.289 25.0613 118.877 25.0835C119.131 25.0826 119.385 25.11 119.633 25.165V27.2075C119.312 27.1104 118.977 27.0658 118.642 27.0755C118.322 27.0626 118.002 27.1186 117.706 27.2395C117.409 27.3604 117.143 27.5433 116.924 27.7759C116.706 28.0084 116.541 28.2849 116.441 28.5865C116.341 28.8881 116.308 29.2076 116.344 29.523V35.8329H114.139L114.139 25.1948Z" fill="#FFFCFC"/>
<path d="M129.799 32.7085C129.502 34.6396 127.603 35.965 125.173 35.965C122.047 35.965 120.107 33.8915 120.107 30.565C120.107 27.2282 122.058 25.0641 125.08 25.0641C128.052 25.0641 129.922 27.0859 129.922 30.3114V31.0596H122.334V31.1915C122.299 31.583 122.348 31.9774 122.479 32.3486C122.61 32.7197 122.819 33.059 123.092 33.344C123.365 33.629 123.697 33.8531 124.064 34.0015C124.432 34.1499 124.827 34.2192 125.224 34.2048C125.745 34.2531 126.268 34.1336 126.715 33.864C127.162 33.5944 127.509 33.1891 127.705 32.7085L129.799 32.7085ZM122.344 29.5334H127.715C127.735 29.1814 127.681 28.8291 127.557 28.4987C127.433 28.1683 127.241 27.8669 126.993 27.6133C126.746 27.3598 126.448 27.1597 126.119 27.0255C125.79 26.8913 125.436 26.8259 125.08 26.8335C124.721 26.8313 124.365 26.8997 124.033 27.0345C123.7 27.1693 123.398 27.368 123.144 27.619C122.889 27.87 122.688 28.1684 122.551 28.497C122.413 28.8256 122.343 29.1778 122.344 29.5334Z" fill="#FFFCFC"/>
<path d="M44.8857 10.2589C45.348 10.2261 45.812 10.2952 46.244 10.4614C46.6761 10.6276 47.0656 10.8867 47.3843 11.2199C47.703 11.5532 47.943 11.9523 48.0871 12.3886C48.2312 12.8248 48.2757 13.2873 48.2174 13.7426C48.2174 15.9825 46.9948 17.27 44.8857 17.27H42.3281V10.2589H44.8857ZM43.4279 16.2785H44.7628C45.0932 16.298 45.4238 16.2444 45.7306 16.1215C46.0374 15.9985 46.3127 15.8094 46.5364 15.5679C46.76 15.3263 46.9265 15.0385 47.0236 14.7252C47.1208 14.4119 47.1462 14.0811 47.0979 13.7569C47.1427 13.434 47.1147 13.1052 47.0161 12.7943C46.9174 12.4833 46.7506 12.1978 46.5274 11.9581C46.3042 11.7185 46.0303 11.5307 45.7252 11.4083C45.4202 11.2858 45.0915 11.2316 44.7628 11.2497H43.4279V16.2785Z" fill="#FFFCFC"/>
<path d="M49.4592 14.6221C49.4256 14.2744 49.4658 13.9236 49.5771 13.5921C49.6885 13.2607 49.8686 12.956 50.1058 12.6975C50.3431 12.439 50.6323 12.2325 50.9549 12.0912C51.2775 11.9498 51.6263 11.8768 51.9791 11.8768C52.3318 11.8768 52.6807 11.9498 53.0033 12.0912C53.3259 12.2325 53.6151 12.439 53.8524 12.6975C54.0896 12.956 54.2697 13.2607 54.3811 13.5921C54.4924 13.9236 54.5326 14.2744 54.499 14.6221C54.5332 14.9701 54.4935 15.3214 54.3825 15.6534C54.2714 15.9854 54.0914 16.2907 53.8541 16.5496C53.6168 16.8086 53.3274 17.0156 53.0045 17.1572C52.6815 17.2988 52.3323 17.372 51.9791 17.372C51.6259 17.372 51.2766 17.2988 50.9537 17.1572C50.6308 17.0156 50.3414 16.8086 50.1041 16.5496C49.8667 16.2907 49.6868 15.9854 49.5757 15.6534C49.4646 15.3214 49.425 14.9701 49.4592 14.6221ZM53.4143 14.6221C53.4143 13.4752 52.894 12.8045 51.9808 12.8045C51.0642 12.8045 50.5485 13.4752 50.5485 14.6221C50.5485 15.7782 51.0642 16.4437 51.9808 16.4437C52.894 16.4437 53.4143 15.7736 53.4143 14.6221Z" fill="#FFFCFC"/>
<path d="M61.1996 17.2698H60.1057L59.0013 13.373H58.9179L57.8181 17.2698H56.7346L55.2617 11.9789H56.3313L57.2885 16.0162H57.3673L58.4659 11.9789H59.4776L60.5762 16.0162H60.6596L61.6122 11.9789H62.6667L61.1996 17.2698Z" fill="#FFFCFC"/>
<path d="M63.9043 11.9789H64.9194V12.8194H64.9982C65.1319 12.5176 65.3574 12.2645 65.6432 12.0955C65.9291 11.9265 66.261 11.8501 66.5928 11.8768C66.8528 11.8574 67.1139 11.8963 67.3567 11.9904C67.5994 12.0845 67.8177 12.2315 67.9954 12.4205C68.173 12.6095 68.3054 12.8356 68.3828 13.0821C68.4601 13.3287 68.4805 13.5893 68.4423 13.8447V17.2698H67.3878V14.1069C67.3878 13.2566 67.0146 12.8338 66.2347 12.8338C66.0582 12.8256 65.882 12.8554 65.7182 12.921C65.5543 12.9866 65.4068 13.0865 65.2856 13.2138C65.1644 13.3412 65.0725 13.493 65.0161 13.6588C64.9597 13.8246 64.9401 14.0006 64.9588 14.1746V17.2699H63.9043L63.9043 11.9789Z" fill="#FFFCFC"/>
<path d="M70.123 9.91345H71.1776V17.2698H70.123V9.91345Z" fill="#FFFCFC"/>
<path d="M72.6427 14.6221C72.6092 14.2743 72.6494 13.9235 72.7608 13.592C72.8721 13.2606 73.0523 12.9559 73.2895 12.6974C73.5268 12.4389 73.8161 12.2324 74.1387 12.091C74.4613 11.9497 74.8102 11.8767 75.1629 11.8767C75.5157 11.8767 75.8646 11.9497 76.1872 12.091C76.5098 12.2324 76.7991 12.4389 77.0363 12.6974C77.2736 12.9559 77.4537 13.2606 77.5651 13.592C77.6765 13.9235 77.7167 14.2743 77.6831 14.6221C77.7173 14.9701 77.6776 15.3214 77.5665 15.6534C77.4554 15.9854 77.2754 16.2906 77.0381 16.5496C76.8007 16.8086 76.5113 17.0156 76.1883 17.1572C75.8654 17.2988 75.5161 17.372 75.1629 17.372C74.8098 17.372 74.4605 17.2988 74.1375 17.1572C73.8146 17.0156 73.5252 16.8086 73.2878 16.5496C73.0505 16.2906 72.8705 15.9854 72.7594 15.6534C72.6483 15.3214 72.6086 14.9701 72.6427 14.6221ZM76.5979 14.6221C76.5979 13.4752 76.0775 12.8045 75.1644 12.8045C74.2477 12.8045 73.7321 13.4752 73.7321 14.6221C73.7321 15.7781 74.2478 16.4437 75.1644 16.4437C76.0776 16.4436 76.5979 15.7735 76.5979 14.6221Z" fill="#FFFCFC"/>
<path d="M78.7949 15.7736C78.7949 14.8212 79.5111 14.2722 80.7823 14.1941L82.2297 14.1115V13.6548C82.2297 13.096 81.8566 12.7805 81.1358 12.7805C80.5471 12.7805 80.1392 12.9945 80.0221 13.3685H79.0012C79.109 12.4597 79.9723 11.8768 81.1845 11.8768C82.5241 11.8768 83.2796 12.5372 83.2796 13.6548V17.2699H82.2645V16.5263H82.1811C82.0117 16.7931 81.7739 17.0105 81.4919 17.1564C81.2099 17.3024 80.8939 17.3716 80.5761 17.3571C80.3517 17.3802 80.125 17.3565 79.9105 17.2875C79.696 17.2185 79.4985 17.1058 79.3307 16.9566C79.1629 16.8074 79.0285 16.6251 78.9362 16.4213C78.8439 16.2176 78.7958 15.9969 78.7949 15.7736ZM82.2297 15.3215V14.8792L80.9249 14.9618C80.189 15.0105 79.8553 15.2584 79.8553 15.7248C79.8553 16.201 80.2724 16.4781 80.8461 16.4781C81.0142 16.495 81.184 16.4782 81.3454 16.4287C81.5068 16.3793 81.6565 16.2982 81.7856 16.1903C81.9146 16.0823 82.0205 15.9498 82.0968 15.8006C82.1731 15.6513 82.2183 15.4884 82.2297 15.3215Z" fill="#FFFCFC"/>
<path d="M84.6641 14.6221C84.6641 12.9502 85.532 11.8911 86.8821 11.8911C87.216 11.8759 87.5475 11.9551 87.8376 12.1195C88.1278 12.2838 88.3647 12.5266 88.5207 12.8194H88.5995V9.91345H89.654V17.2698H88.6435V16.4339H88.5601C88.3921 16.7247 88.1469 16.9644 87.8511 17.1271C87.5553 17.2899 87.2202 17.3694 86.8821 17.357C85.5228 17.3571 84.6641 16.2979 84.6641 14.6221ZM85.7534 14.6221C85.7534 15.7443 86.2876 16.4196 87.1811 16.4196C88.0699 16.4196 88.6192 15.7346 88.6192 14.6267C88.6192 13.524 88.0642 12.8292 87.1811 12.8292C86.2934 12.8292 85.7534 13.509 85.7534 14.6221Z" fill="#FFFCFC"/>
<path d="M94.0178 14.6221C93.9842 14.2744 94.0244 13.9236 94.1357 13.5921C94.2471 13.2607 94.4272 12.956 94.6644 12.6975C94.9017 12.439 95.1909 12.2325 95.5135 12.0912C95.8361 11.9498 96.1849 11.8768 96.5377 11.8768C96.8904 11.8768 97.2393 11.9498 97.5619 12.0912C97.8845 12.2325 98.1737 12.439 98.4109 12.6975C98.6482 12.956 98.8283 13.2607 98.9396 13.5921C99.051 13.9236 99.0912 14.2744 99.0576 14.6221C99.0918 14.9701 99.0521 15.3214 98.9411 15.6534C98.83 15.9854 98.65 16.2907 98.4127 16.5496C98.1754 16.8086 97.886 17.0156 97.563 17.1572C97.2401 17.2988 96.8909 17.372 96.5377 17.372C96.1845 17.372 95.8352 17.2988 95.5123 17.1572C95.1894 17.0156 94.9 16.8086 94.6627 16.5496C94.4253 16.2907 94.2454 15.9854 94.1343 15.6534C94.0232 15.3214 93.9835 14.9701 94.0178 14.6221ZM97.9729 14.6221C97.9729 13.4752 97.4526 12.8045 96.5394 12.8045C95.6228 12.8045 95.1071 13.4752 95.1071 14.6221C95.1071 15.7782 95.6228 16.4437 96.5394 16.4437C97.4526 16.4437 97.9729 15.7736 97.9729 14.6221Z" fill="#FFFCFC"/>
<path d="M100.473 11.9789H101.488V12.8194H101.567C101.7 12.5176 101.926 12.2645 102.212 12.0955C102.497 11.9265 102.829 11.8501 103.161 11.8768C103.421 11.8574 103.682 11.8963 103.925 11.9904C104.168 12.0845 104.386 12.2315 104.564 12.4205C104.741 12.6095 104.874 12.8356 104.951 13.0821C105.028 13.3287 105.049 13.5893 105.011 13.8447V17.2698H103.956V14.1069C103.956 13.2566 103.583 12.8338 102.803 12.8338C102.627 12.8256 102.45 12.8554 102.287 12.921C102.123 12.9866 101.975 13.0865 101.854 13.2138C101.733 13.3412 101.641 13.493 101.584 13.6588C101.528 13.8246 101.509 14.0006 101.527 14.1746V17.2699H100.473V11.9789Z" fill="#FFFCFC"/>
<path d="M110.968 10.6616V12.003H112.126V12.8825H110.968V15.6032C110.968 16.1574 111.199 16.4001 111.724 16.4001C111.858 16.3996 111.993 16.3916 112.126 16.376V17.2457C111.937 17.2793 111.745 17.2971 111.552 17.2991C110.38 17.2991 109.913 16.8906 109.913 15.8705V12.8825H109.064V12.003H109.913V10.6616H110.968Z" fill="#FFFCFC"/>
<path d="M113.568 9.91345H114.614V12.8292H114.697C114.837 12.5245 115.069 12.27 115.36 12.1004C115.652 11.9307 115.989 11.8543 116.326 11.8814C116.585 11.8674 116.844 11.9102 117.084 12.0066C117.324 12.103 117.539 12.2506 117.715 12.439C117.891 12.6274 118.022 12.8519 118.1 13.0965C118.178 13.341 118.201 13.5996 118.167 13.8538V17.2698H117.111V14.1114C117.111 13.2663 116.713 12.8383 115.968 12.8383C115.787 12.8236 115.605 12.8483 115.434 12.9106C115.264 12.973 115.109 13.0714 114.981 13.1992C114.852 13.327 114.754 13.4809 114.692 13.6503C114.631 13.8197 114.607 14.0003 114.623 14.1797V17.2698H113.568L113.568 9.91345Z" fill="#FFFCFC"/>
<path d="M124.314 15.8413C124.171 16.3248 123.861 16.7431 123.437 17.0229C123.014 17.3028 122.505 17.4263 121.999 17.372C121.647 17.3812 121.297 17.3144 120.974 17.1763C120.65 17.0382 120.361 16.8321 120.126 16.5723C119.891 16.3124 119.717 16.0051 119.614 15.6716C119.511 15.3381 119.482 14.9865 119.531 14.641C119.484 14.2945 119.513 13.9421 119.615 13.6076C119.718 13.2731 119.892 12.9644 120.125 12.7023C120.359 12.4402 120.647 12.2308 120.969 12.0884C121.292 11.946 121.641 11.8738 121.994 11.8768C123.481 11.8768 124.378 12.8826 124.378 14.544V14.9084H120.605V14.9669C120.588 15.1611 120.613 15.3565 120.677 15.5407C120.741 15.7249 120.844 15.8937 120.978 16.0365C121.112 16.1792 121.274 16.2926 121.455 16.3694C121.636 16.4463 121.831 16.4848 122.028 16.4827C122.28 16.5127 122.536 16.4677 122.762 16.3535C122.988 16.2392 123.175 16.0609 123.299 15.8412L124.314 15.8413ZM120.605 14.1361H123.304C123.317 13.9586 123.293 13.7802 123.232 13.6125C123.172 13.4448 123.077 13.2915 122.953 13.1624C122.829 13.0333 122.679 12.9313 122.513 12.863C122.347 12.7946 122.168 12.7614 121.988 12.7655C121.806 12.7632 121.625 12.7971 121.456 12.8652C121.287 12.9333 121.134 13.0342 121.005 13.1619C120.876 13.2897 120.774 13.4417 120.705 13.609C120.637 13.7763 120.602 13.9556 120.605 14.1361Z" fill="#FFFCFC"/>
</g>
<defs>
<clipPath id="clip0_883_1770">
<rect width="142" height="47" fill="white"/>
</clipPath>
</defs>
</svg>
