<svg width="157" height="47" viewBox="0 0 157 47" fill="none" xmlns="http://www.w3.org/2000/svg">
<g clip-path="url(#clip0_883_1805)">
<path d="M151.245 0H5.74888C2.53395 0 -0.0722656 2.6307 -0.0722656 5.87583V41.1242C-0.0722656 44.3693 2.53395 47 5.74888 47H151.245C154.46 47 157.066 44.3693 157.066 41.1242V5.87583C157.066 2.6307 154.46 0 151.245 0Z" fill="black"/>
<path d="M151.251 0.941724C153.945 0.941724 156.139 3.15677 156.139 5.87583V41.1242C156.139 43.8432 153.945 46.0583 151.251 46.0583H5.74888C3.05512 46.0583 0.860694 43.8432 0.860694 41.1242V5.87583C0.860694 3.15677 3.05512 0.941724 5.74888 0.941724H151.251ZM151.251 0H5.74888C2.54922 0 -0.0722656 2.64611 -0.0722656 5.87583V41.1242C-0.0722656 44.3539 2.54922 47 5.74888 47H151.251C154.451 47 157.072 44.3539 157.072 41.1242V5.87583C157.072 2.64611 154.451 0 151.251 0Z" fill="#A6A6A6"/>
<path d="M55.1227 12.0368C55.1227 13.0183 54.8336 13.8075 54.2555 14.3911C53.5985 15.0875 52.7443 15.4323 51.6931 15.4323C50.6419 15.4323 49.8272 15.0808 49.1242 14.3779C48.4212 13.6749 48.0664 12.7995 48.0664 11.7516C48.0664 10.7038 48.4212 9.83504 49.1242 9.12543C49.8272 8.42245 50.6879 8.06433 51.6931 8.06433C52.1924 8.06433 52.6721 8.16381 53.1254 8.35613C53.5787 8.55509 53.9467 8.81373 54.216 9.14532L53.605 9.76872C53.1451 9.21164 52.5078 8.93311 51.6931 8.93311C50.9573 8.93311 50.32 9.19175 49.7878 9.71566C49.2556 10.2396 48.9862 10.916 48.9862 11.745C48.9862 12.574 49.2556 13.2571 49.7878 13.7744C50.3265 14.2983 50.9573 14.5569 51.6931 14.5569C52.475 14.5569 53.1254 14.2916 53.6445 13.7677C53.9795 13.4229 54.1766 12.952 54.2292 12.3419H51.6931V11.493H55.0767C55.1096 11.6787 55.1227 11.8511 55.1227 12.0236V12.0368Z" fill="#FFFCFC" stroke="#FFFCFC" stroke-width="0.2" stroke-miterlimit="10"/>
<path d="M60.4902 9.09224H57.3103V11.3272H60.1814V12.1761H57.3103V14.411H60.4902V15.2798H56.4102V8.2301H60.4902V9.09888V9.09224Z" fill="#FFFCFC" stroke="#FFFCFC" stroke-width="0.2" stroke-miterlimit="10"/>
<path d="M64.2753 15.2732H63.3752V9.09228H61.4238V8.22351H66.22V9.09228H64.2687V15.2732H64.2753Z" fill="#FFFCFC" stroke="#FFFCFC" stroke-width="0.2" stroke-miterlimit="10"/>
<path d="M69.6953 15.2732V8.22351H70.5889V15.2732H69.6953Z" fill="#FFFCFC" stroke="#FFFCFC" stroke-width="0.2" stroke-miterlimit="10"/>
<path d="M74.5761 15.2732H73.6759V9.09228H71.7246V8.22351H76.5208V9.09228H74.5695V15.2732H74.5761Z" fill="#FFFCFC" stroke="#FFFCFC" stroke-width="0.2" stroke-miterlimit="10"/>
<path d="M85.6074 14.3646C84.9175 15.0808 84.07 15.4323 83.045 15.4323C82.0201 15.4323 81.1725 15.0742 80.4827 14.3646C79.7928 13.6549 79.4512 12.7795 79.4512 11.7516C79.4512 10.7237 79.7928 9.84826 80.4827 9.13865C81.166 8.42241 82.0201 8.07092 83.045 8.07092C84.07 8.07092 84.911 8.42904 85.6008 9.14528C86.2907 9.86153 86.6323 10.7303 86.6323 11.7516C86.6323 12.7729 86.2907 13.6549 85.6008 14.3646H85.6074ZM81.1528 13.7743C81.6719 14.3049 82.3026 14.5635 83.0516 14.5635C83.8006 14.5635 84.4313 14.2982 84.9504 13.7743C85.4694 13.2438 85.7256 12.574 85.7256 11.7516C85.7256 10.9293 85.4628 10.2528 84.9504 9.72889C84.4379 9.19834 83.8006 8.9397 83.0516 8.9397C82.3026 8.9397 81.6719 9.20497 81.1528 9.72889C80.6404 10.2594 80.3776 10.9293 80.3776 11.7516C80.3776 12.574 80.6404 13.2504 81.1528 13.7743Z" fill="#FFFCFC" stroke="#FFFCFC" stroke-width="0.2" stroke-miterlimit="10"/>
<path d="M87.9011 15.2732V8.22351H88.9917L92.3885 13.7081H92.4279L92.3885 12.3485V8.22351H93.2886V15.2732H92.3491L88.7946 9.52336H88.7552L88.7946 10.8829V15.2732H87.8945H87.9011Z" fill="#FFFCFC" stroke="#FFFCFC" stroke-width="0.2" stroke-miterlimit="10"/>
<path d="M79.2417 25.5592C76.502 25.5592 74.2747 27.6615 74.2747 30.553C74.2747 33.4445 76.5086 35.5468 79.2417 35.5468C81.9749 35.5468 84.2088 33.4246 84.2088 30.553C84.2088 27.6814 81.9749 25.5592 79.2417 25.5592ZM79.2417 33.5837C77.7437 33.5837 76.4494 32.3369 76.4494 30.553C76.4494 28.769 77.7437 27.5222 79.2417 27.5222C80.7397 27.5222 82.034 28.7491 82.034 30.553C82.034 32.3568 80.7397 33.5837 79.2417 33.5837ZM68.401 25.5592C65.6613 25.5592 63.434 27.6615 63.434 30.553C63.434 33.4445 65.6678 35.5468 68.401 35.5468C71.1342 35.5468 73.368 33.4246 73.368 30.553C73.368 27.6814 71.1342 25.5592 68.401 25.5592ZM68.401 33.5837C66.903 33.5837 65.6087 32.3369 65.6087 30.553C65.6087 28.769 66.903 27.5222 68.401 27.5222C69.899 27.5222 71.1933 28.7491 71.1933 30.553C71.1933 32.3568 69.899 33.5837 68.401 33.5837ZM55.5038 27.0911V29.2133H60.53C60.3789 30.4071 59.9847 31.2758 59.3868 31.886C58.6575 32.6221 57.5143 33.4378 55.5038 33.4378C52.4093 33.4378 49.9915 30.9177 49.9915 27.7941C49.9915 24.6705 52.4093 22.1504 55.5038 22.1504C57.1726 22.1504 58.3947 22.8136 59.2882 23.6625L60.7731 22.1637C59.5182 20.95 57.8494 20.0282 55.5038 20.0282C51.2661 20.0282 47.7051 23.5099 47.7051 27.7875C47.7051 32.065 51.2661 35.5468 55.5038 35.5468C57.7902 35.5468 59.5182 34.7907 60.8651 33.3715C62.2514 31.9722 62.685 30.0025 62.685 28.4109C62.685 27.9201 62.6456 27.4625 62.5733 27.0845H55.5038V27.0911ZM108.242 28.7358C107.828 27.6217 106.574 25.5525 104.005 25.5525C101.436 25.5525 99.3332 27.5753 99.3332 30.5463C99.3332 33.345 101.436 35.5401 104.248 35.5401C106.514 35.5401 107.828 34.1408 108.374 33.3251L106.685 32.191C106.12 33.0266 105.351 33.5705 104.248 33.5705C103.144 33.5705 102.355 33.0598 101.85 32.0584L108.472 29.2929L108.249 28.7226L108.242 28.7358ZM101.488 30.4004C101.429 28.4706 102.973 27.4824 104.077 27.4824C104.938 27.4824 105.673 27.9201 105.916 28.5435L101.488 30.4004ZM96.1073 35.2483H98.282V20.5587H96.1073V35.2483ZM92.5463 26.6733H92.474C91.9878 26.0897 91.0483 25.5592 89.8656 25.5592C87.3887 25.5592 85.122 27.7543 85.122 30.5729C85.122 33.3914 87.3887 35.5534 89.8656 35.5534C91.0483 35.5534 91.9812 35.0228 92.474 34.4193H92.5463V35.1356C92.5463 37.0456 91.5345 38.0669 89.8985 38.0669C88.5648 38.0669 87.7435 37.0986 87.4018 36.2895L85.5096 37.0853C86.055 38.4117 87.5004 40.0365 89.8985 40.0365C92.4477 40.0365 94.6027 38.5245 94.6027 34.8305V25.8576H92.5397V26.6733H92.5463ZM90.0496 33.5837C88.5516 33.5837 87.2902 32.317 87.2902 30.5729C87.2902 28.8287 88.545 27.5222 90.0496 27.5222C91.5542 27.5222 92.6974 28.8088 92.6974 30.5729C92.6974 32.3369 91.5345 33.5837 90.0496 33.5837ZM118.433 20.5587H113.229V35.2483H115.404V29.6842H118.439C120.844 29.6842 123.216 27.9267 123.216 25.1215C123.216 22.3162 120.85 20.5587 118.439 20.5587H118.433ZM118.485 27.6416H115.397V22.608H118.485C120.108 22.608 121.028 23.9675 121.028 25.1281C121.028 26.2887 120.108 27.6482 118.485 27.6482V27.6416ZM131.908 25.5326C130.338 25.5326 128.708 26.229 128.032 27.7808L129.963 28.5966C130.377 27.7808 131.139 27.5222 131.947 27.5222C133.071 27.5222 134.214 28.2053 134.234 29.4123V29.5648C133.84 29.3393 132.999 28.9945 131.967 28.9945C129.891 28.9945 127.775 30.1484 127.775 32.3038C127.775 34.2668 129.477 35.5335 131.389 35.5335C132.847 35.5335 133.656 34.8703 134.162 34.101H134.234V35.2351H136.33V29.6046C136.33 26.9983 134.398 25.5393 131.908 25.5393V25.5326ZM131.652 33.5771C130.942 33.5771 129.95 33.219 129.95 32.3303C129.95 31.1963 131.185 30.7585 132.25 30.7585C133.202 30.7585 133.656 30.9641 134.234 31.2493C134.063 32.6088 132.907 33.5705 131.652 33.5705V33.5771ZM143.964 25.851L141.474 32.2176H141.402L138.82 25.851H136.481L140.357 34.7509L138.15 39.7049H140.416L146.389 25.851H143.971H143.964ZM124.405 35.2483H126.58V20.5587H124.405V35.2483Z" fill="#FFFCFC"/>
<path d="M24.0475 22.8202L11.6562 36.0972C11.6562 36.0972 11.6562 36.0972 11.6562 36.1038C12.0373 37.543 13.3382 38.6041 14.8888 38.6041C15.5064 38.6041 16.0911 38.4316 16.5839 38.1398L16.6233 38.1133L30.5717 29.9893L24.041 22.8136L24.0475 22.8202Z" fill="#EA4335"/>
<path d="M36.5827 20.5588H36.5696L30.5448 17.024L23.7578 23.1187L30.5645 29.9893L36.5564 26.501C37.6077 25.9306 38.3172 24.8099 38.3172 23.5233C38.3172 22.2367 37.6142 21.1292 36.5761 20.5588H36.5827Z" fill="#FBBC04"/>
<path d="M11.6488 10.9028C11.5765 11.1814 11.5371 11.4732 11.5371 11.7716V35.2351C11.5371 35.5336 11.5765 35.8254 11.6488 36.1039L24.4671 23.1651L11.6488 10.9028Z" fill="#4285F4"/>
<path d="M24.1395 23.4967L30.552 17.024L16.6167 8.86682C16.1108 8.56175 15.5195 8.38269 14.8888 8.38269C13.3382 8.38269 12.0373 9.44379 11.6562 10.8895L24.1395 23.4901V23.4967Z" fill="#34A853"/>
</g>
<defs>
<clipPath id="clip0_883_1805">
<rect width="157" height="47" fill="white"/>
</clipPath>
</defs>
</svg>
