<svg width="205" height="56" viewBox="0 0 205 56" fill="none" xmlns="http://www.w3.org/2000/svg">
<path d="M24.4834 44.429V25.4312H32.7463V41.8983C32.7463 45.1793 34.7847 47.3682 37.897 47.3682C41.2362 47.3682 43.5016 45.1216 43.5016 41.7829V25.4312H51.7645V44.3136C51.7645 45.8098 52.6113 46.6755 54.0867 46.6755H54.6541V54.7915H52.332C48.3686 54.7915 45.7103 53.4684 44.4663 50.8179C42.2008 53.868 39.0319 55.4796 35.1252 55.4796C28.7305 55.4796 24.4834 51.1065 24.4834 44.4246V44.429Z" fill="#F9F3F1"/>
<path d="M140.133 41.4233V25.4312H148.396V44.3136C148.396 45.8098 149.243 46.6755 150.718 46.6755H151.285V54.7915H148.963C144.537 54.8803 142.726 53.0688 142.202 52.465C140.142 50.1075 140.142 46.0584 140.137 41.4233H140.133Z" fill="#F9F3F1"/>
<path d="M56.8584 25.431H65.1213V28.1926C67.2732 25.8883 70.045 24.7384 73.3275 24.7384C77.3476 24.7384 80.5166 26.5232 82.2713 29.5156C84.5935 26.4078 87.8759 24.7384 92.0052 24.7384C98.2864 24.7384 102.477 29.0539 102.477 35.6203V44.3134C102.477 45.8096 103.328 46.6754 104.799 46.6754H105.366V54.7913H103.044C97.2126 54.7913 94.2139 51.8566 94.2139 46.1559V38.1554C94.2139 34.9899 92.2322 32.8588 89.2334 32.8588C86.0077 32.8588 83.799 35.0476 83.799 38.2709V54.7958H75.5361V38.1599C75.5361 34.9943 73.5544 32.8632 70.5557 32.8632C67.33 32.8632 65.1213 35.052 65.1213 38.2753V54.8002H56.8584V25.4399V25.431Z" fill="#F9F3F1"/>
<path d="M107.182 13.3414H115.445V28.3657C117.653 26.0614 120.652 24.7384 124.161 24.7384C132.141 24.7384 138.086 31.3581 138.086 40.1089C138.086 48.8597 132.141 55.4795 124.161 55.4795C120.652 55.4795 117.653 54.1564 115.445 51.8522V54.7868H107.182V13.337V13.3414ZM129.596 40.1133C129.596 35.9666 126.597 32.8587 122.52 32.8587C118.443 32.8587 115.445 35.9666 115.445 40.1133C115.445 44.2601 118.443 47.368 122.52 47.368C126.597 47.368 129.596 44.2601 129.596 40.1133Z" fill="#F9F3F1"/>
<path d="M152.407 40.1134C152.407 31.3626 159.086 24.7429 167.973 24.7429C176.86 24.7429 183.538 31.3049 183.538 40.2288C183.538 40.9792 183.482 42.1291 183.311 42.8217H161.238C162.141 46.1604 164.747 48.2915 168.2 48.2915C170.915 48.2915 173.18 47.0839 174.258 45.5299H183.089C180.937 51.4615 175.166 55.4884 168.034 55.4884C159.09 55.4884 152.412 48.8687 152.412 40.1178L152.407 40.1134ZM161.294 37.2364H174.708C173.804 34.0131 171.255 31.9398 167.973 31.9398C164.69 31.9398 162.198 34.0131 161.294 37.2364Z" fill="#F9F3F1"/>
<path d="M148.396 13.3459H140.133V25.5776H148.396V13.3459Z" fill="#F9F3F1"/>
<path d="M0 34.031V42.1469H2.26543C2.62335 42.1469 2.97692 42.138 3.33484 42.1203C4.50029 42.0626 5.66138 41.9027 6.80064 41.6408C7.36372 41.512 7.91807 41.3566 8.46806 41.1746V55.4841H17.2373V35.2431C18.2543 34.0532 18.9222 33.0143 19.2801 32.4415C19.5289 32.0464 20.1444 31.043 20.7817 29.6622C21.24 28.6722 21.6372 27.651 21.9733 26.6077C22.3225 25.5243 22.6106 24.4233 22.8376 23.3089C23.0776 22.1457 23.2522 20.9691 23.3657 19.7837C23.488 18.5494 23.5447 17.3063 23.5447 16.0632C23.5447 5.81612 18.848 0 11.7723 0C4.98044 0 0.510702 5.23895 0.510702 14.1629C0.510702 20.8404 2.99874 27.3491 7.24586 32.5836C5.60463 33.5026 3.79316 34.0221 1.81146 34.0221H0V34.031ZM15.0548 15.4327C15.0548 19.5218 14.2604 23.2601 12.7894 26.3146C10.4105 22.745 9.05297 18.5406 9.05297 14.1674C9.05297 10.2515 10.1267 8.12038 11.9382 8.12038C13.7497 8.12038 15.0504 10.4246 15.0504 15.4327H15.0548Z" fill="#F9F3F1"/>
<circle cx="196.538" cy="47.4885" r="8" fill="#FFC53E"/>
</svg>
